# This file uses centimeters as units for non-parametric coordinates.

mtllib LargeRock.mtl
g default
v -1.585664 5.929370 -12.041530
v 1.596902 6.052908 -11.921339
v -1.408004 9.293857 -12.218667
v 1.160376 9.523179 -12.153301
v -1.192543 10.034589 -15.747074
v 1.160376 10.035550 -15.747074
v -1.372280 6.072155 -16.578145
v 1.853966 6.094974 -16.578145
v -1.479721 10.623125 -13.512897
v 1.564500 7.621144 -16.453655
v -0.117309 5.921759 -17.094373
v -1.496879 7.546182 -16.453655
v 2.206934 6.038355 -13.657497
v -1.767183 5.947659 -14.145546
v -0.124910 5.962558 -11.815658
v 1.564500 8.206800 -11.945706
v -0.125950 9.620708 -11.859531
v -1.770533 7.620623 -12.005856
v 1.379279 10.658590 -13.500083
v -0.118348 10.421863 -16.028602
v -0.124910 7.738479 -11.536849
v -0.131148 11.278715 -13.484819
v -0.079301 7.551952 -17.261347
v -0.124910 5.787671 -13.653533
v 2.157830 8.277247 -13.654559
v -2.099316 7.742274 -13.664584
v -1.473643 8.706278 -15.874947
v 1.431985 8.749422 -16.251162
v 0.799057 7.534053 -17.105828
v 1.684791 6.555099 -16.667804
v 0.670983 5.905474 -16.977732
v -0.094504 6.558330 -17.606625
v -0.890397 5.905474 -16.977732
v -1.490652 6.558499 -16.977732
v -0.124910 5.754199 -15.693916
v -1.048877 5.754199 -13.653533
v -1.642683 5.920759 -15.565842
v 2.090295 5.972100 -15.565842
v 0.799057 5.754199 -13.653533
v 2.090295 6.038725 -12.663592
v -0.124910 5.754199 -12.519660
v -1.673089 5.932642 -12.669000
v 2.392654 7.024708 -13.669391
v 2.012894 8.335447 -12.611778
v 2.012894 7.954010 -15.119208
v 2.210814 9.359956 -13.578348
v -2.074168 6.661923 -13.674801
v -1.905128 7.654164 -15.119208
v -2.087564 7.694789 -12.651876
v -1.972111 9.033991 -13.591398
v -0.920803 5.931471 -11.925133
v -0.124910 6.721520 -11.551589
v -1.048877 7.628687 -11.651290
v -1.673089 6.643911 -12.031470
v 0.670983 5.986213 -11.919723
v 1.453153 7.023706 -11.999012
v 0.799057 7.969498 -11.611192
v 1.431985 9.022718 -11.985446
v 0.649815 9.598360 -11.929212
v -0.124910 8.720827 -11.580838
v -0.903794 9.477672 -11.980467
v -1.656079 8.576978 -12.063749
v -0.129069 10.868262 -12.548909
v -0.754805 11.161744 -13.486730
v -1.436654 10.252209 -12.701279
v 1.326144 10.383255 -12.650025
v 0.672049 11.124921 -13.479089
v 1.326144 10.457201 -14.463057
v 0.649815 10.303967 -15.911962
v -0.129069 11.101290 -14.503119
v -0.681371 10.312163 -15.911962
v -1.406247 10.455038 -14.463057
v -0.094504 8.790667 -16.953967
v -0.866441 7.534053 -17.105828
v -0.984840 6.654759 -11.669301
v 0.735020 6.873728 -11.647662
v 0.735020 8.853627 -11.653989
v -0.984840 8.585230 -11.706192
v -0.724787 10.737290 -12.620586
v 0.650348 10.753933 -12.590022
v 0.650348 10.949889 -14.439081
v -0.724787 10.982675 -14.439081
v -0.863215 8.726629 -16.807596
v 0.735020 8.726629 -16.807596
v 0.735020 6.550773 -17.460253
v -0.863215 6.550773 -17.460253
v -0.984840 5.726847 -15.629880
v 0.735020 5.726847 -15.629880
v 0.735020 5.726847 -12.583696
v -0.984840 5.726847 -12.583696
v 2.246283 7.083776 -12.647129
v 2.246283 6.817274 -15.629880
v 2.106779 9.073949 -14.791132
v 2.106779 9.267186 -12.635010
v -1.896348 6.611912 -15.629880
v -2.017973 6.659445 -12.668767
v -1.949935 8.826212 -12.687211
v -1.828310 8.901372 -14.791132
vt 0.375000 0.000000
vt 0.375000 1.000000
vt 0.625000 0.000000
vt 0.625000 1.000000
vt 0.375000 0.250000
vt 0.625000 0.250000
vt 0.375000 0.500000
vt 0.125000 0.250000
vt 0.625000 0.500000
vt 0.875000 0.250000
vt 0.375000 0.750000
vt 0.125000 0.000000
vt 0.625000 0.750000
vt 0.875000 0.000000
vt 0.375000 0.375000
vt 0.250000 0.250000
vt 0.625000 0.625000
vt 0.875000 0.125000
vt 0.500000 0.750000
vt 0.375000 0.625000
vt 0.125000 0.125000
vt 0.625000 0.875000
vt 0.750000 0.000000
vt 0.375000 0.875000
vt 0.250000 0.000000
vt 0.500000 0.000000
vt 0.500000 1.000000
vt 0.625000 0.125000
vt 0.500000 0.250000
vt 0.375000 0.125000
vt 0.625000 0.375000
vt 0.750000 0.250000
vt 0.500000 0.500000
vt 0.500000 0.125000
vt 0.500000 0.375000
vt 0.500000 0.625000
vt 0.500000 0.875000
vt 0.750000 0.125000
vt 0.250000 0.125000
vt 0.437500 0.062500
vt 0.562500 0.062500
vt 0.562500 0.187500
vt 0.437500 0.187500
vt 0.437500 0.312500
vt 0.562500 0.312500
vt 0.562500 0.437500
vt 0.437500 0.437500
vt 0.437500 0.562500
vt 0.562500 0.562500
vt 0.562500 0.687500
vt 0.437500 0.687500
vt 0.437500 0.812500
vt 0.562500 0.812500
vt 0.562500 0.937500
vt 0.437500 0.937500
vt 0.687500 0.062500
vt 0.812500 0.062500
vt 0.812500 0.187500
vt 0.687500 0.187500
vt 0.187500 0.062500
vt 0.312500 0.062500
vt 0.312500 0.187500
vt 0.187500 0.187500
vt 0.437500 0.000000
vt 0.437500 1.000000
vt 0.500000 0.062500
vt 0.437500 0.125000
vt 0.375000 0.062500
vt 0.562500 0.000000
vt 0.562500 1.000000
vt 0.625000 0.062500
vt 0.562500 0.125000
vt 0.625000 0.187500
vt 0.562500 0.250000
vt 0.500000 0.187500
vt 0.437500 0.250000
vt 0.375000 0.187500
vt 0.500000 0.312500
vt 0.437500 0.375000
vt 0.375000 0.312500
vt 0.312500 0.250000
vt 0.625000 0.312500
vt 0.687500 0.250000
vt 0.562500 0.375000
vt 0.625000 0.437500
vt 0.812500 0.250000
vt 0.562500 0.500000
vt 0.500000 0.437500
vt 0.437500 0.500000
vt 0.375000 0.437500
vt 0.187500 0.250000
vt 0.500000 0.562500
vt 0.437500 0.625000
vt 0.375000 0.562500
vt 0.125000 0.187500
vt 0.625000 0.562500
vt 0.875000 0.187500
vt 0.562500 0.625000
vt 0.625000 0.687500
vt 0.875000 0.062500
vt 0.562500 0.750000
vt 0.500000 0.687500
vt 0.437500 0.750000
vt 0.375000 0.687500
vt 0.125000 0.062500
vt 0.500000 0.812500
vt 0.437500 0.875000
vt 0.375000 0.812500
vt 0.187500 0.000000
vt 0.625000 0.812500
vt 0.812500 0.000000
vt 0.562500 0.875000
vt 0.625000 0.937500
vt 0.687500 0.000000
vt 0.500000 0.937500
vt 0.375000 0.937500
vt 0.312500 0.000000
vt 0.750000 0.062500
vt 0.687500 0.125000
vt 0.812500 0.125000
vt 0.750000 0.187500
vt 0.250000 0.062500
vt 0.187500 0.125000
vt 0.312500 0.125000
vt 0.250000 0.187500
vn -0.557787 -0.586542 0.587233
vn -0.156848 -0.691352 0.705288
vn -0.249671 -0.140263 0.958118
vn -0.693277 -0.149360 0.705024
vn 0.022643 -0.666427 0.745226
vn 0.004219 -0.156893 0.987607
vn -0.021374 0.011177 0.999709
vn -0.290976 0.015926 0.956598
vn -0.708242 0.017040 0.705764
vn 0.167532 -0.670842 0.722429
vn 0.221498 -0.108489 0.969107
vn 0.466586 -0.496476 0.731990
vn 0.563465 -0.031228 0.825549
vn 0.608343 0.018405 0.793461
vn 0.256836 0.000763 0.966455
vn 0.206304 0.190301 0.959804
vn -0.052311 0.172476 0.983624
vn 0.547642 0.224064 0.806154
vn 0.427498 0.420198 0.800424
vn 0.193410 0.427237 0.883211
vn -0.058781 0.416357 0.907299
vn -0.296168 0.172257 0.939474
vn -0.689092 0.196857 0.697424
vn -0.317034 0.390776 0.864166
vn -0.604560 0.355099 0.713031
vn -0.363508 0.657073 0.660392
vn -0.773520 0.465341 0.430261
vn -0.027021 0.701688 0.711972
vn 0.014006 0.993468 0.113245
vn -0.430385 0.896190 0.107759
vn -0.850915 0.524426 0.030365
vn 0.276637 0.702948 0.655237
vn 0.648455 0.595669 0.474009
vn 0.744787 0.667202 0.011563
vn 0.363501 0.927426 0.088025
vn 0.363577 0.884875 -0.291218
vn 0.017181 0.946020 -0.323652
vn 0.747215 0.607447 -0.269589
vn 0.704231 0.525491 -0.477407
vn 0.350766 0.689448 -0.633738
vn 0.007759 0.719070 -0.694895
vn -0.415875 0.861228 -0.292121
vn -0.842655 0.484082 -0.235793
vn -0.437032 0.653377 -0.618143
vn -0.791728 0.426041 -0.437784
vn -0.510904 0.339719 -0.789663
vn -0.870814 0.241325 -0.428305
vn 0.001178 0.394067 -0.919081
vn 0.001486 0.284872 -0.958564
vn -0.487867 0.287412 -0.824245
vn -0.868547 0.199364 -0.453739
vn 0.374005 0.358557 -0.855311
vn 0.780821 0.293102 -0.551733
vn 0.785860 0.219138 -0.578276
vn 0.434561 0.254321 -0.863989
vn 0.393930 -0.035457 -0.918457
vn 0.000313 -0.072205 -0.997390
vn 0.758104 0.059909 -0.649376
vn 0.523228 -0.759654 -0.386210
vn 0.185967 -0.890686 -0.414844
vn -0.000945 -0.906667 -0.421846
vn -0.406847 -0.042220 -0.912520
vn -0.839555 -0.012958 -0.543121
vn -0.203995 -0.891971 -0.403453
vn -0.670024 -0.668843 -0.322052
vn -0.105486 -0.993194 -0.049387
vn -0.680860 -0.724034 -0.110474
vn 0.000017 -0.999117 -0.042006
vn -0.000000 -1.000000 0.000003
vn -0.100270 -0.994960 0.000422
vn -0.687723 -0.725596 -0.023409
vn 0.100682 -0.994036 -0.041889
vn 0.581982 -0.808546 -0.086896
vn 0.636373 -0.771223 0.015612
vn 0.107674 -0.994160 0.007286
vn 0.108584 -0.989250 0.097954
vn 0.006975 -0.994239 0.106962
vn 0.670218 -0.682549 0.291434
vn -0.092836 -0.993064 0.072151
vn -0.663064 -0.740765 0.107762
vn 0.918802 0.027761 0.393742
vn 0.999400 0.033881 -0.007157
vn 0.996471 0.083519 -0.008398
vn 0.915351 0.048081 0.399777
vn 0.969117 0.081337 -0.232802
vn 0.956946 0.155534 -0.245080
vn 0.926344 0.269629 -0.263035
vn 0.949296 0.314061 -0.014270
vn 0.877219 0.280794 0.389411
vn -0.975985 -0.091300 -0.197783
vn -0.983829 -0.176221 -0.032031
vn -0.996848 0.048730 -0.062605
vn -0.975856 0.089793 -0.199105
vn -0.962086 -0.208298 0.176077
vn -0.978136 0.032018 0.205488
vn -0.944041 0.221385 0.244492
vn -0.975111 0.218771 -0.036026
vn -0.954802 0.205568 -0.214698
s 1
g BigRock
usemtl initialShadingGroup
f 1/1/1 51/64/2 75/40/3 54/68/4
f 51/64/2 15/26/5 52/66/6 75/40/3
f 75/40/3 52/66/6 21/34/7 53/67/8
f 54/68/4 75/40/3 53/67/8 18/30/9
f 15/26/5 55/69/10 76/41/11 52/66/6
f 55/69/10 2/3/12 56/71/13 76/41/11
f 76/41/11 56/71/13 16/28/14 57/72/15
f 52/66/6 76/41/11 57/72/15 21/34/7
f 21/34/7 57/72/15 77/42/16 60/75/17
f 57/72/15 16/28/14 58/73/18 77/42/16
f 77/42/16 58/73/18 4/6/19 59/74/20
f 60/75/17 77/42/16 59/74/20 17/29/21
f 18/30/9 53/67/8 78/43/22 62/77/23
f 53/67/8 21/34/7 60/75/17 78/43/22
f 78/43/22 60/75/17 17/29/21 61/76/24
f 62/77/23 78/43/22 61/76/24 3/5/25
f 3/5/25 61/76/24 79/44/26 65/80/27
f 61/76/24 17/29/21 63/78/28 79/44/26
f 79/44/26 63/78/28 22/35/29 64/79/30
f 65/80/27 79/44/26 64/79/30 9/15/31
f 17/29/21 59/74/20 80/45/32 63/78/28
f 59/74/20 4/6/19 66/82/33 80/45/32
f 80/45/32 66/82/33 19/31/34 67/84/35
f 63/78/28 80/45/32 67/84/35 22/35/29
f 22/35/29 67/84/35 81/46/36 70/88/37
f 67/84/35 19/31/34 68/85/38 81/46/36
f 81/46/36 68/85/38 6/9/39 69/87/40
f 70/88/37 81/46/36 69/87/40 20/33/41
f 9/15/31 64/79/30 82/47/42 72/90/43
f 64/79/30 22/35/29 70/88/37 82/47/42
f 82/47/42 70/88/37 20/33/41 71/89/44
f 72/90/43 82/47/42 71/89/44 5/7/45
f 5/7/45 71/89/44 83/48/46 27/94/47
f 71/89/44 20/33/41 73/92/48 83/48/46
f 83/48/46 73/92/48 23/36/49 74/93/50
f 27/94/47 83/48/46 74/93/50 12/20/51
f 20/33/41 69/87/40 84/49/52 73/92/48
f 69/87/40 6/9/39 28/96/53 84/49/52
f 84/49/52 28/96/53 10/17/54 29/98/55
f 73/92/48 84/49/52 29/98/55 23/36/49
f 23/36/49 29/98/55 85/50/56 32/102/57
f 29/98/55 10/17/54 30/99/58 85/50/56
f 85/50/56 30/99/58 8/13/59 31/101/60
f 32/102/57 85/50/56 31/101/60 11/19/61
f 12/20/51 74/93/50 86/51/62 34/104/63
f 74/93/50 23/36/49 32/102/57 86/51/62
f 86/51/62 32/102/57 11/19/61 33/103/64
f 34/104/63 86/51/62 33/103/64 7/11/65
f 7/11/65 33/103/64 87/52/66 37/108/67
f 33/103/64 11/19/61 35/106/68 87/52/66
f 87/52/66 35/106/68 24/37/69 36/107/70
f 37/108/67 87/52/66 36/107/70 14/24/71
f 11/19/61 31/101/60 88/53/72 35/106/68
f 31/101/60 8/13/59 38/110/73 88/53/72
f 88/53/72 38/110/73 13/22/74 39/112/75
f 35/106/68 88/53/72 39/112/75 24/37/69
f 24/37/69 39/112/75 89/54/76 41/115/77
f 39/112/75 13/22/74 40/113/78 89/54/76
f 89/54/76 40/113/78 2/4/12 55/70/10
f 41/115/77 89/54/76 55/70/10 15/27/5
f 14/24/71 36/107/70 90/55/79 42/116/80
f 36/107/70 24/37/69 41/115/77 90/55/79
f 90/55/79 41/115/77 15/27/5 51/65/2
f 42/116/80 90/55/79 51/65/2 1/2/1
f 2/3/12 40/114/78 91/56/81 56/71/13
f 40/114/78 13/23/74 43/118/82 91/56/81
f 91/56/81 43/118/82 25/38/83 44/119/84
f 56/71/13 91/56/81 44/119/84 16/28/14
f 13/23/74 38/111/73 92/57/85 43/118/82
f 38/111/73 8/14/59 30/100/58 92/57/85
f 92/57/85 30/100/58 10/18/54 45/120/86
f 43/118/82 92/57/85 45/120/86 25/38/83
f 25/38/83 45/120/86 93/58/87 46/121/88
f 45/120/86 10/18/54 28/97/53 93/58/87
f 93/58/87 28/97/53 6/10/39 68/86/38
f 46/121/88 93/58/87 68/86/38 19/32/34
f 16/28/14 44/119/84 94/59/89 58/73/18
f 44/119/84 25/38/83 46/121/88 94/59/89
f 94/59/89 46/121/88 19/32/34 66/83/33
f 58/73/18 94/59/89 66/83/33 4/6/19
f 7/12/65 37/109/67 95/60/90 34/105/63
f 37/109/67 14/25/71 47/122/91 95/60/90
f 95/60/90 47/122/91 26/39/92 48/123/93
f 34/105/63 95/60/90 48/123/93 12/21/51
f 14/25/71 42/117/80 96/61/94 47/122/91
f 42/117/80 1/1/1 54/68/4 96/61/94
f 96/61/94 54/68/4 18/30/9 49/124/95
f 47/122/91 96/61/94 49/124/95 26/39/92
f 26/39/92 49/124/95 97/62/96 50/125/97
f 49/124/95 18/30/9 62/77/23 97/62/96
f 97/62/96 62/77/23 3/5/25 65/81/27
f 50/125/97 97/62/96 65/81/27 9/16/31
f 12/21/51 48/123/93 98/63/98 27/95/47
f 48/123/93 26/39/92 50/125/97 98/63/98
f 98/63/98 50/125/97 9/16/31 72/91/43
f 27/95/47 98/63/98 72/91/43 5/8/45
